<?xml version="1.0" standalone="no"?>
<!DOCTYPE svg PUBLIC "-//W3C//DTD SVG 20010904//EN"
 "http://www.w3.org/TR/2001/REC-SVG-20010904/DTD/svg10.dtd">
<svg version="1.0" xmlns="http://www.w3.org/2000/svg"
 width="150pt" height="150pt" viewBox="0 0 1024.000000 1024.000000"
 preserveAspectRatio="xMidYMid meet">

<g transform="translate(0.000000,1024.000000) scale(0.100000,-0.100000)"
fill="#000000" stroke="none">
<path d="M4986 8514 c-43 -24 -145 -79 -225 -121 -80 -42 -150 -79 -156 -83
-11 -8 -146 -80 -780 -415 -143 -76 -298 -158 -345 -182 -47 -25 -89 -49 -95
-53 -5 -4 -89 -48 -185 -97 -96 -50 -197 -104 -225 -120 -27 -16 -88 -49 -135
-72 -107 -55 -511 -270 -694 -371 -79 -43 -149 -88 -160 -104 l-21 -27 -3
-1756 -3 -1755 34 -32 c18 -17 148 -91 288 -165 140 -74 319 -169 399 -211 80
-43 190 -101 245 -130 96 -50 142 -75 250 -135 28 -16 124 -67 215 -115 91
-48 242 -127 335 -177 94 -50 310 -165 480 -255 171 -91 389 -207 485 -258 96
-51 220 -118 275 -149 88 -49 106 -56 155 -55 49 0 70 8 180 68 269 147 520
281 870 466 201 106 428 226 505 268 303 162 688 368 855 457 96 51 249 132
340 180 91 49 197 104 235 123 103 52 151 87 165 123 11 25 12 349 7 1765 -7
1878 -4 1770 -59 1806 -23 15 -522 282 -733 393 -157 82 -437 230 -670 355
-110 59 -243 130 -295 157 -201 107 -731 389 -860 458 -74 39 -164 87 -200
105 -36 18 -117 61 -181 96 -150 82 -178 84 -293 18z"/>
</g>
</svg>
